<?xml version="1.0" encoding="utf-8"?>
<!-- Generator: Adobe Illustrator 19.1.0, SVG Export Plug-In . SVG Version: 6.00 Build 0)  -->
<svg version="1.1" id="Capa_1" xmlns="http://www.w3.org/2000/svg" xmlns:xlink="http://www.w3.org/1999/xlink" x="0px" y="0px"
	 viewBox="-92 184 426 426" style="enable-background:new -92 184 426 426;" xml:space="preserve">
<style type="text/css">
	.st0{fill:#007BFF;}
	.st1{fill:#231F20;}
	.st2{fill:none;stroke:#15A2B8;stroke-width:2;stroke-miterlimit:10;}
	.st3{fill:none;stroke:#17A2B8;stroke-width:2;stroke-miterlimit:10;}
	.st4{fill:none;stroke:#000000;stroke-width:0.5;}
	.st5{fill:none;}
	.st6{fill:#3C3C3C;}
	.st7{fill:#CCCDCB;}
	.st8{fill:#858685;}
</style>
<path class="st0" d="M237.8,596.6c0,4-3.2,7.2-7.2,7.2h-216c-4,0-7.2-3.2-7.2-7.2V312.5c0-4,3.2-7.2,7.2-7.2h216
	c4,0,7.2,3.2,7.2,7.2V596.6z"/>
<rect x="21.4" y="193.7" class="st0" width="202.5" height="103.6"/>
<g>
	<g>
		<g>
			<path d="M201.9,477.1H44.1c-2.2,0-4-1.8-4-4s1.8-4,4-4H202c2.2,0,4,1.8,4,4S204.1,477.1,201.9,477.1z"/>
			<path d="M201.9,494.9H44.1c-2.2,0-4-1.8-4-4s1.8-4,4-4H202c2.2,0,4,1.8,4,4S204.1,494.9,201.9,494.9z"/>
			<path d="M201.9,512.7H44.1c-2.2,0-4-1.8-4-4s1.8-4,4-4H202c2.2,0,4,1.8,4,4S204.1,512.7,201.9,512.7z"/>
			<path d="M201.9,530.6H44.1c-2.2,0-4-1.8-4-4s1.8-4,4-4H202c2.2,0,4,1.8,4,4C205.9,528.8,204.1,530.6,201.9,530.6z"/>
			<path d="M201.9,548.4H44.1c-2.2,0-4-1.8-4-4s1.8-4,4-4H202c2.2,0,4,1.8,4,4C205.9,546.6,204.1,548.4,201.9,548.4z"/>
			<path d="M201.9,566.2H44.1c-2.2,0-4-1.8-4-4s1.8-4,4-4H202c2.2,0,4,1.8,4,4C205.9,564.4,204.1,566.2,201.9,566.2z"/>
		</g>
		<g>
			<path class="st1" d="M201.9,477.1H44.1c-2.2,0-4-1.8-4-4s1.8-4,4-4H202c2.2,0,4,1.8,4,4S204.1,477.1,201.9,477.1z"/>
			<path class="st1" d="M201.9,494.9H44.1c-2.2,0-4-1.8-4-4s1.8-4,4-4H202c2.2,0,4,1.8,4,4S204.1,494.9,201.9,494.9z"/>
			<path class="st1" d="M201.9,512.7H44.1c-2.2,0-4-1.8-4-4s1.8-4,4-4H202c2.2,0,4,1.8,4,4S204.1,512.7,201.9,512.7z"/>
			<path class="st1" d="M201.9,530.6H44.1c-2.2,0-4-1.8-4-4s1.8-4,4-4H202c2.2,0,4,1.8,4,4C205.9,528.8,204.1,530.6,201.9,530.6z"/>
			<path class="st1" d="M201.9,548.4H44.1c-2.2,0-4-1.8-4-4s1.8-4,4-4H202c2.2,0,4,1.8,4,4C205.9,546.6,204.1,548.4,201.9,548.4z"/>
			<path class="st1" d="M201.9,566.2H44.1c-2.2,0-4-1.8-4-4s1.8-4,4-4H202c2.2,0,4,1.8,4,4C205.9,564.4,204.1,566.2,201.9,566.2z"/>
		</g>
		<g>
			<path class="st2" d="M201.9,477.1H44.1c-2.2,0-4-1.8-4-4s1.8-4,4-4H202c2.2,0,4,1.8,4,4S204.1,477.1,201.9,477.1z"/>
			<path class="st2" d="M201.9,494.9H44.1c-2.2,0-4-1.8-4-4s1.8-4,4-4H202c2.2,0,4,1.8,4,4S204.1,494.9,201.9,494.9z"/>
			<path class="st2" d="M201.9,512.7H44.1c-2.2,0-4-1.8-4-4s1.8-4,4-4H202c2.2,0,4,1.8,4,4S204.1,512.7,201.9,512.7z"/>
			<path class="st2" d="M201.9,530.6H44.1c-2.2,0-4-1.8-4-4s1.8-4,4-4H202c2.2,0,4,1.8,4,4C205.9,528.8,204.1,530.6,201.9,530.6z"/>
			<path class="st2" d="M201.9,548.4H44.1c-2.2,0-4-1.8-4-4s1.8-4,4-4H202c2.2,0,4,1.8,4,4C205.9,546.6,204.1,548.4,201.9,548.4z"/>
			<path class="st2" d="M201.9,566.2H44.1c-2.2,0-4-1.8-4-4s1.8-4,4-4H202c2.2,0,4,1.8,4,4C205.9,564.4,204.1,566.2,201.9,566.2z"/>
		</g>
	</g>
	<g>
		<g>
			<path d="M222.7,444.9H23.3c-2.2,0-4,1.8-4,4v137.5c0,2.2,1.8,4,4,4h199.3c2.2,0,4-1.8,4-4V448.9
				C226.7,446.7,224.9,444.9,222.7,444.9z M218.7,582.4H27.3V452.9h191.3L218.7,582.4L218.7,582.4z"/>
			<g>
				<path d="M34.8,359.2c0.8,0.9,1.9,1.4,3,1.4c0.9,0,1.8-0.3,2.6-1c1.7-1.4,1.9-4,0.4-5.6l-7.3-8.5h23.3c2.2,0,4-1.8,4-4
					s-1.8-4-4-4H33.6l7.3-8.5c1.4-1.7,1.2-4.2-0.4-5.6c-1.7-1.4-4.2-1.2-5.6,0.4L22,338.9c-1.3,1.5-1.3,3.7,0,5.2L34.8,359.2z"/>
				<path d="M34.8,414.1c0.8,0.9,1.9,1.4,3,1.4c0.9,0,1.8-0.3,2.6-1c1.7-1.4,1.9-4,0.4-5.6l-7.3-8.5h23.3c2.2,0,4-1.8,4-4
					s-1.8-4-4-4H33.6l7.3-8.5c1.4-1.7,1.2-4.2-0.4-5.6s-4.2-1.2-5.6,0.4L22,393.8c-1.3,1.5-1.3,3.7,0,5.2L34.8,414.1z"/>
				<path d="M188.4,400.4h23.3l-7.3,8.5c-1.4,1.7-1.2,4.2,0.4,5.6c0.8,0.6,1.7,1,2.6,1c1.1,0,2.2-0.5,3-1.4l12.9-15.1
					c1.3-1.5,1.3-3.7,0-5.2l-12.9-15.1c-1.4-1.7-4-1.9-5.6-0.4c-1.7,1.4-1.9,4-0.4,5.6l7.3,8.5h-23.3c-2.2,0-4,1.8-4,4
					S186.2,400.4,188.4,400.4z"/>
				<path d="M188.4,345.5h23.3l-7.3,8.5c-1.4,1.7-1.2,4.2,0.4,5.6c0.8,0.6,1.7,1,2.6,1c1.1,0,2.2-0.5,3-1.4l12.9-15.1
					c1.3-1.5,1.3-3.7,0-5.2l-12.9-15.1c-1.4-1.7-4-1.9-5.6-0.4c-1.7,1.4-1.9,4-0.4,5.6l7.3,8.5h-23.3c-2.2,0-4,1.8-4,4
					S186.2,345.5,188.4,345.5z"/>
			</g>
			<path d="M259.8,363.5c2.2,0,4-1.8,4-4v-33.3c0-2.2-1.8-4-4-4h-13.5v-9.7c0-7.9-6.1-14.5-13.9-15.1V185.7H13.8v111.6
				c-7.8,0.6-13.9,7.2-13.9,15.1v9.7h-13.5c-2.2,0-4,1.8-4,4v33.3c0,2.2,1.8,4,4,4h13.5v11.9h-14.3c-2.2,0-4,1.8-4,4v33.3
				c0,2.2,1.8,4,4,4h14.3v179.9c0,8.4,6.8,15.2,15.2,15.2h216c8.4,0,15.2-6.8,15.2-15.2v-180h13.5c2.2,0,4-1.8,4-4v-33.3
				c0-2.2-1.8-4-4-4h-13.5v-11.9h13.5V363.5z M-9.7,355.5v-25.3h9.5v25.3H-9.7z M-10.4,408.6v-25.3h10.3v25.3H-10.4z M224.3,193.7
				v103.6H21.8V193.7H224.3z M238.2,596.6c0,4-3.2,7.2-7.2,7.2H15c-4,0-7.2-3.2-7.2-7.2V312.5c0-4,3.2-7.2,7.2-7.2h216
				c4,0,7.2,3.2,7.2,7.2V596.6z M255.8,330.2v25.3h-9.5v-25.3H255.8z M255.8,383.3v25.3h-9.5v-25.3H255.8z"/>
			<path d="M48.1,274.8c11.2,0,20.3-9.1,20.3-20.3s-9.1-20.3-20.3-20.3s-20.3,9.1-20.3,20.3S36.9,274.8,48.1,274.8z M44.1,243v6.2
				c0,2.2,1.8,4,4,4s4-1.8,4-4V243c4.8,1.7,8.3,6.2,8.3,11.6c0,6.8-5.5,12.3-12.3,12.3s-12.3-5.5-12.3-12.3
				C35.8,249.2,39.3,244.7,44.1,243z"/>
			<path d="M97.8,274.8c11.2,0,20.3-9.1,20.3-20.3s-9.1-20.3-20.3-20.3s-20.3,9.1-20.3,20.3S86.6,274.8,97.8,274.8z M93.8,243v6.2
				c0,2.2,1.8,4,4,4s4-1.8,4-4V243c4.8,1.7,8.3,6.2,8.3,11.6c0,6.8-5.5,12.3-12.3,12.3s-12.3-5.5-12.3-12.3
				C85.6,249.2,89,244.7,93.8,243z"/>
			<path d="M127.3,254.6c0,11.2,9.1,20.3,20.3,20.3s20.3-9.1,20.3-20.3s-9.1-20.3-20.3-20.3C136.4,234.3,127.3,243.4,127.3,254.6z
				 M143.5,243v6.2c0,2.2,1.8,4,4,4s4-1.8,4-4V243c4.8,1.7,8.3,6.2,8.3,11.6c0,6.8-5.5,12.3-12.3,12.3s-12.3-5.5-12.3-12.3
				C135.3,249.2,138.7,244.7,143.5,243z"/>
			<path d="M197.2,274.8c11.2,0,20.3-9.1,20.3-20.3s-9.1-20.3-20.3-20.3s-20.3,9.1-20.3,20.3S186.1,274.8,197.2,274.8z M193.2,243
				v6.2c0,2.2,1.8,4,4,4s4-1.8,4-4V243c4.8,1.7,8.3,6.2,8.3,11.6c0,6.8-5.5,12.3-12.3,12.3s-12.3-5.5-12.3-12.3
				C185,249.2,188.4,244.7,193.2,243z"/>
			<path d="M122.7,227.2c6.7,0,12.1-5.4,12.1-12.1s-5.4-12.1-12.1-12.1c-6.7,0-12.1,5.4-12.1,12.1
				C110.5,221.8,116,227.2,122.7,227.2z M122.7,211c2.3,0,4.1,1.9,4.1,4.1c0,2.3-1.9,4.1-4.1,4.1s-4.1-1.9-4.1-4.1
				C118.5,212.8,120.4,211,122.7,211z"/>
		</g>
		<g>
			<path class="st1" d="M222.7,444.9H23.3c-2.2,0-4,1.8-4,4v137.5c0,2.2,1.8,4,4,4h199.3c2.2,0,4-1.8,4-4V448.9
				C226.7,446.7,224.9,444.9,222.7,444.9z M218.7,582.4H27.3V452.9h191.3L218.7,582.4L218.7,582.4z"/>
			<g>
				<path class="st1" d="M34.8,359.2c0.8,0.9,1.9,1.4,3,1.4c0.9,0,1.8-0.3,2.6-1c1.7-1.4,1.9-4,0.4-5.6l-7.3-8.5h23.3
					c2.2,0,4-1.8,4-4s-1.8-4-4-4H33.6l7.3-8.5c1.4-1.7,1.2-4.2-0.4-5.6c-1.7-1.4-4.2-1.2-5.6,0.4L22,338.9c-1.3,1.5-1.3,3.7,0,5.2
					L34.8,359.2z"/>
				<path class="st1" d="M34.8,414.1c0.8,0.9,1.9,1.4,3,1.4c0.9,0,1.8-0.3,2.6-1c1.7-1.4,1.9-4,0.4-5.6l-7.3-8.5h23.3
					c2.2,0,4-1.8,4-4s-1.8-4-4-4H33.6l7.3-8.5c1.4-1.7,1.2-4.2-0.4-5.6s-4.2-1.2-5.6,0.4L22,393.8c-1.3,1.5-1.3,3.7,0,5.2
					L34.8,414.1z"/>
				<path class="st1" d="M188.4,400.4h23.3l-7.3,8.5c-1.4,1.7-1.2,4.2,0.4,5.6c0.8,0.6,1.7,1,2.6,1c1.1,0,2.2-0.5,3-1.4l12.9-15.1
					c1.3-1.5,1.3-3.7,0-5.2l-12.9-15.1c-1.4-1.7-4-1.9-5.6-0.4c-1.7,1.4-1.9,4-0.4,5.6l7.3,8.5h-23.3c-2.2,0-4,1.8-4,4
					S186.2,400.4,188.4,400.4z"/>
				<path class="st1" d="M188.4,345.5h23.3l-7.3,8.5c-1.4,1.7-1.2,4.2,0.4,5.6c0.8,0.6,1.7,1,2.6,1c1.1,0,2.2-0.5,3-1.4l12.9-15.1
					c1.3-1.5,1.3-3.7,0-5.2l-12.9-15.1c-1.4-1.7-4-1.9-5.6-0.4c-1.7,1.4-1.9,4-0.4,5.6l7.3,8.5h-23.3c-2.2,0-4,1.8-4,4
					S186.2,345.5,188.4,345.5z"/>
			</g>
			<path class="st1" d="M259.8,363.5c2.2,0,4-1.8,4-4v-33.3c0-2.2-1.8-4-4-4h-13.5v-9.7c0-7.9-6.1-14.5-13.9-15.1V185.7H13.8v111.6
				c-7.8,0.6-13.9,7.2-13.9,15.1v9.7h-13.5c-2.2,0-4,1.8-4,4v33.3c0,2.2,1.8,4,4,4h13.5v11.9h-14.3c-2.2,0-4,1.8-4,4v33.3
				c0,2.2,1.8,4,4,4h14.3v179.9c0,8.4,6.8,15.2,15.2,15.2h216c8.4,0,15.2-6.8,15.2-15.2v-180h13.5c2.2,0,4-1.8,4-4v-33.3
				c0-2.2-1.8-4-4-4h-13.5v-11.9h13.5V363.5z M-9.7,355.5v-25.3h9.5v25.3H-9.7z M-10.4,408.6v-25.3h10.3v25.3H-10.4z M224.3,193.7
				v103.6H21.8V193.7H224.3z M238.2,596.6c0,4-3.2,7.2-7.2,7.2H15c-4,0-7.2-3.2-7.2-7.2V312.5c0-4,3.2-7.2,7.2-7.2h216
				c4,0,7.2,3.2,7.2,7.2V596.6z M255.8,330.2v25.3h-9.5v-25.3H255.8z M255.8,383.3v25.3h-9.5v-25.3H255.8z"/>
			<path class="st1" d="M48.1,274.8c11.2,0,20.3-9.1,20.3-20.3s-9.1-20.3-20.3-20.3s-20.3,9.1-20.3,20.3S36.9,274.8,48.1,274.8z
				 M44.1,243v6.2c0,2.2,1.8,4,4,4s4-1.8,4-4V243c4.8,1.7,8.3,6.2,8.3,11.6c0,6.8-5.5,12.3-12.3,12.3s-12.3-5.5-12.3-12.3
				C35.8,249.2,39.3,244.7,44.1,243z"/>
			<path class="st1" d="M97.8,274.8c11.2,0,20.3-9.1,20.3-20.3s-9.1-20.3-20.3-20.3s-20.3,9.1-20.3,20.3S86.6,274.8,97.8,274.8z
				 M93.8,243v6.2c0,2.2,1.8,4,4,4s4-1.8,4-4V243c4.8,1.7,8.3,6.2,8.3,11.6c0,6.8-5.5,12.3-12.3,12.3s-12.3-5.5-12.3-12.3
				C85.6,249.2,89,244.7,93.8,243z"/>
			<path class="st1" d="M127.3,254.6c0,11.2,9.1,20.3,20.3,20.3s20.3-9.1,20.3-20.3s-9.1-20.3-20.3-20.3
				C136.4,234.3,127.3,243.4,127.3,254.6z M143.5,243v6.2c0,2.2,1.8,4,4,4s4-1.8,4-4V243c4.8,1.7,8.3,6.2,8.3,11.6
				c0,6.8-5.5,12.3-12.3,12.3s-12.3-5.5-12.3-12.3C135.3,249.2,138.7,244.7,143.5,243z"/>
			<path class="st1" d="M197.2,274.8c11.2,0,20.3-9.1,20.3-20.3s-9.1-20.3-20.3-20.3s-20.3,9.1-20.3,20.3S186.1,274.8,197.2,274.8z
				 M193.2,243v6.2c0,2.2,1.8,4,4,4s4-1.8,4-4V243c4.8,1.7,8.3,6.2,8.3,11.6c0,6.8-5.5,12.3-12.3,12.3s-12.3-5.5-12.3-12.3
				C185,249.2,188.4,244.7,193.2,243z"/>
			<path class="st1" d="M122.7,227.2c6.7,0,12.1-5.4,12.1-12.1s-5.4-12.1-12.1-12.1c-6.7,0-12.1,5.4-12.1,12.1
				C110.5,221.8,116,227.2,122.7,227.2z M122.7,211c2.3,0,4.1,1.9,4.1,4.1c0,2.3-1.9,4.1-4.1,4.1s-4.1-1.9-4.1-4.1
				C118.5,212.8,120.4,211,122.7,211z"/>
		</g>
		<g>
			<path class="st3" d="M222.7,444.9H23.3c-2.2,0-4,1.8-4,4v137.5c0,2.2,1.8,4,4,4h199.3c2.2,0,4-1.8,4-4V448.9
				C226.7,446.7,224.9,444.9,222.7,444.9z M218.7,582.4H27.3V452.9h191.3L218.7,582.4L218.7,582.4z"/>
			<g>
				<path class="st3" d="M34.8,359.2c0.8,0.9,1.9,1.4,3,1.4c0.9,0,1.8-0.3,2.6-1c1.7-1.4,1.9-4,0.4-5.6l-7.3-8.5h23.3
					c2.2,0,4-1.8,4-4s-1.8-4-4-4H33.6l7.3-8.5c1.4-1.7,1.2-4.2-0.4-5.6c-1.7-1.4-4.2-1.2-5.6,0.4L22,338.9c-1.3,1.5-1.3,3.7,0,5.2
					L34.8,359.2z"/>
				<path class="st3" d="M34.8,414.1c0.8,0.9,1.9,1.4,3,1.4c0.9,0,1.8-0.3,2.6-1c1.7-1.4,1.9-4,0.4-5.6l-7.3-8.5h23.3
					c2.2,0,4-1.8,4-4s-1.8-4-4-4H33.6l7.3-8.5c1.4-1.7,1.2-4.2-0.4-5.6s-4.2-1.2-5.6,0.4L22,393.8c-1.3,1.5-1.3,3.7,0,5.2
					L34.8,414.1z"/>
				<path class="st3" d="M188.4,400.4h23.3l-7.3,8.5c-1.4,1.7-1.2,4.2,0.4,5.6c0.8,0.6,1.7,1,2.6,1c1.1,0,2.2-0.5,3-1.4l12.9-15.1
					c1.3-1.5,1.3-3.7,0-5.2l-12.9-15.1c-1.4-1.7-4-1.9-5.6-0.4c-1.7,1.4-1.9,4-0.4,5.6l7.3,8.5h-23.3c-2.2,0-4,1.8-4,4
					S186.2,400.4,188.4,400.4z"/>
				<path class="st3" d="M188.4,345.5h23.3l-7.3,8.5c-1.4,1.7-1.2,4.2,0.4,5.6c0.8,0.6,1.7,1,2.6,1c1.1,0,2.2-0.5,3-1.4l12.9-15.1
					c1.3-1.5,1.3-3.7,0-5.2l-12.9-15.1c-1.4-1.7-4-1.9-5.6-0.4c-1.7,1.4-1.9,4-0.4,5.6l7.3,8.5h-23.3c-2.2,0-4,1.8-4,4
					S186.2,345.5,188.4,345.5z"/>
			</g>
			<path class="st3" d="M259.8,363.5c2.2,0,4-1.8,4-4v-33.3c0-2.2-1.8-4-4-4h-13.5v-9.7c0-7.9-6.1-14.5-13.9-15.1V185.7H13.8v111.6
				c-7.8,0.6-13.9,7.2-13.9,15.1v9.7h-13.5c-2.2,0-4,1.8-4,4v33.3c0,2.2,1.8,4,4,4h13.5v11.9h-14.3c-2.2,0-4,1.8-4,4v33.3
				c0,2.2,1.8,4,4,4h14.3v179.9c0,8.4,6.8,15.2,15.2,15.2h216c8.4,0,15.2-6.8,15.2-15.2v-180h13.5c2.2,0,4-1.8,4-4v-33.3
				c0-2.2-1.8-4-4-4h-13.5v-11.9h13.5V363.5z M-9.7,355.5v-25.3h9.5v25.3H-9.7z M-10.4,408.6v-25.3h10.3v25.3H-10.4z M224.3,193.7
				v103.6H21.8V193.7H224.3z M238.2,596.6c0,4-3.2,7.2-7.2,7.2H15c-4,0-7.2-3.2-7.2-7.2V312.5c0-4,3.2-7.2,7.2-7.2h216
				c4,0,7.2,3.2,7.2,7.2V596.6z M255.8,330.2v25.3h-9.5v-25.3H255.8z M255.8,383.3v25.3h-9.5v-25.3H255.8z M255.8,330.2v25.3h-9.5
				v-25.3H255.8z"/>
			<path class="st3" d="M48.1,274.8c11.2,0,20.3-9.1,20.3-20.3s-9.1-20.3-20.3-20.3s-20.3,9.1-20.3,20.3S36.9,274.8,48.1,274.8z
				 M44.1,243v6.2c0,2.2,1.8,4,4,4s4-1.8,4-4V243c4.8,1.7,8.3,6.2,8.3,11.6c0,6.8-5.5,12.3-12.3,12.3s-12.3-5.5-12.3-12.3
				C35.8,249.2,39.3,244.7,44.1,243z"/>
			<path class="st3" d="M97.8,274.8c11.2,0,20.3-9.1,20.3-20.3s-9.1-20.3-20.3-20.3s-20.3,9.1-20.3,20.3S86.6,274.8,97.8,274.8z
				 M93.8,243v6.2c0,2.2,1.8,4,4,4s4-1.8,4-4V243c4.8,1.7,8.3,6.2,8.3,11.6c0,6.8-5.5,12.3-12.3,12.3s-12.3-5.5-12.3-12.3
				C85.6,249.2,89,244.7,93.8,243z"/>
			<path class="st3" d="M127.3,254.6c0,11.2,9.1,20.3,20.3,20.3s20.3-9.1,20.3-20.3s-9.1-20.3-20.3-20.3
				C136.4,234.3,127.3,243.4,127.3,254.6z M143.5,243v6.2c0,2.2,1.8,4,4,4s4-1.8,4-4V243c4.8,1.7,8.3,6.2,8.3,11.6
				c0,6.8-5.5,12.3-12.3,12.3s-12.3-5.5-12.3-12.3C135.3,249.2,138.7,244.7,143.5,243z"/>
			<path class="st3" d="M197.2,274.8c11.2,0,20.3-9.1,20.3-20.3s-9.1-20.3-20.3-20.3s-20.3,9.1-20.3,20.3S186.1,274.8,197.2,274.8z
				 M193.2,243v6.2c0,2.2,1.8,4,4,4s4-1.8,4-4V243c4.8,1.7,8.3,6.2,8.3,11.6c0,6.8-5.5,12.3-12.3,12.3s-12.3-5.5-12.3-12.3
				C185,249.2,188.4,244.7,193.2,243z"/>
			<path class="st3" d="M122.7,227.2c6.7,0,12.1-5.4,12.1-12.1s-5.4-12.1-12.1-12.1c-6.7,0-12.1,5.4-12.1,12.1
				C110.5,221.8,116,227.2,122.7,227.2z M122.7,211c2.3,0,4.1,1.9,4.1,4.1c0,2.3-1.9,4.1-4.1,4.1s-4.1-1.9-4.1-4.1
				C118.5,212.8,120.4,211,122.7,211z"/>
		</g>
	</g>
</g>
<g transform="matrix(1 0 0 1 804.6599 329.1043)">
	<g>
		<g>
			<line class="st4" x1="712.8" y1="513.6" x2="714.8" y2="513.6"/>
			<line class="st4" x1="712.8" y1="513.3" x2="714.8" y2="513.3"/>
			<line class="st4" x1="712.8" y1="513.1" x2="714.8" y2="513.1"/>
			<line class="st4" x1="712.8" y1="512.8" x2="714.8" y2="512.8"/>
		</g>
	</g>
	<g transform="matrix(1 0 0 1 805.5681 329.1458)">
		<g transform="matrix(1 0 0 1 806.5515 328.7318)">
			<path class="st5" d=""/>
			<rect x="713.2" y="513.1" class="st6" width="0.2" height="0.6"/>
			<rect x="1519.2" y="841.9" class="st6" width="0.2" height="0.7"/>
			<rect x="2325.7" y="1170.7" class="st6" width="0.2" height="0.8"/>
		</g>
		<g transform="matrix(1 0 0 1 806.3826 329.0076)">
			<rect x="2324.3" y="1171.1" class="st7" width="0.2" height="0.4"/>
			<rect x="3130" y="1500.1" class="st7" width="0.2" height="0.6"/>
			<rect x="3936.4" y="1829.1" class="st7" width="0.2" height="0.6"/>
		</g>
		<g transform="matrix(1 0 0 1 806.2136 329.2835)">
			<rect x="3934.9" y="1829.3" class="st8" width="0.2" height="0.3"/>
			<rect x="4740.4" y="2158.5" class="st8" width="0.2" height="0.4"/>
			<rect x="5546.7" y="2487.8" class="st8" width="0.2" height="0.3"/>
		</g>
	</g>
	<g transform="matrix(1 0 0 1 806.3318 329.7713)">
		<line class="st4" x1="4739.7" y1="2158.9" x2="4741.7" y2="2158.9"/>
		<line class="st4" x1="4740" y1="2158.9" x2="4740" y2="2159"/>
		<line class="st4" x1="5545.8" y1="2488.7" x2="5545.8" y2="2488.8"/>
		<line class="st4" x1="6352" y1="2818.5" x2="6352" y2="2818.6"/>
	</g>
	<g transform="matrix(1 0 0 1 804.6599 328.8284)">
		<line class="st4" x1="6350.4" y1="2818.5" x2="6350.4" y2="2817.7"/>
		<line class="st4" x1="6350.4" y1="2818.5" x2="6350.4" y2="2818.5"/>
		<line class="st4" x1="7155.2" y1="3147.8" x2="7155.2" y2="3147.8"/>
		<line class="st4" x1="7959.8" y1="3477" x2="7959.8" y2="3477"/>
		<line class="st4" x1="8764.5" y1="3805.8" x2="8764.5" y2="3805.8"/>
	</g>
</g>
</svg>
